<svg xmlns="http://www.w3.org/2000/svg" xmlns:xlink="http://www.w3.org/1999/xlink" version="1.1" width="256" height="256" viewBox="0 0 256 256" xml:space="preserve">
<g style="stroke: none; stroke-width: 0; stroke-dasharray: none; stroke-linecap: butt; stroke-linejoin: miter; stroke-miterlimit: 10; fill: none; fill-rule: nonzero; opacity: 1;" transform="translate(1.4065934065934016 1.4065934065934016) scale(2.81 2.81)">
	<path d="M 63.886 82.376 H 26.114 c -3.334 0 -6.036 -2.703 -6.036 -6.036 V 61.632 C 20.078 47.868 31.236 36.71 45 36.71 h 0 c 13.764 0 24.922 11.158 24.922 24.922 v 14.708 C 69.922 79.673 67.22 82.376 63.886 82.376 z" style="stroke: none; stroke-width: 1; stroke-dasharray: none; stroke-linecap: butt; stroke-linejoin: miter; stroke-miterlimit: 10; fill: rgb(0,194,251); fill-rule: nonzero; opacity: 1;" transform=" matrix(1 0 0 1 0 0) " stroke-linecap="round"/>
	<path d="M 45 36.71 L 45 36.71 c -7.587 0 -13.737 -6.15 -13.737 -13.737 v -9.236 C 31.263 6.15 37.413 0 45 0 h 0 c 7.587 0 13.737 6.15 13.737 13.737 v 9.236 C 58.737 30.559 52.587 36.71 45 36.71 z" style="stroke: none; stroke-width: 1; stroke-dasharray: none; stroke-linecap: butt; stroke-linejoin: miter; stroke-miterlimit: 10; fill: rgb(255,206,190); fill-rule: nonzero; opacity: 1;" transform=" matrix(1 0 0 1 0 0) " stroke-linecap="round"/>
	<polygon points="45,54.16 50.82,65.96 63.84,67.85 54.42,77.03 56.65,90 45,83.88 33.35,90 35.58,77.03 26.16,67.85 39.18,65.96 " style="stroke: none; stroke-width: 1; stroke-dasharray: none; stroke-linecap: butt; stroke-linejoin: miter; stroke-miterlimit: 10; fill: rgb(255,224,47); fill-rule: nonzero; opacity: 1;" transform="  matrix(1 0 0 1 0 0) "/>
</g>
</svg>